<?xml version="1.0" encoding="UTF-8" standalone="no"?>
<!-- Created with Inkscape (http://www.inkscape.org/) -->

<svg
   width="19.999811mm"
   height="19.999817mm"
   viewBox="0 0 19.999811 19.999817"
   version="1.1"
   id="svg1"
   xmlns="http://www.w3.org/2000/svg"
   xmlns:svg="http://www.w3.org/2000/svg">
  <defs
     id="defs1" />
  <g
     id="layer1"
     transform="translate(-56.993711,-51.063216)">
    <path
       id="path1"
       style="fill:#808080;stroke-width:0.264583"
       d="m 66.99362,51.063215 a 10,10 0 0 0 -9.999907,9.999907 10,10 0 0 0 9.999907,9.999906 10,10 0 0 0 9.999906,-9.999906 10,10 0 0 0 -9.999906,-9.999907 z m -1.012858,2.57297 a 0.94588637,0.79572874 0 0 1 0.945678,0.795817 0.94588637,0.79572874 0 0 1 -0.945678,0.7953 0.94588637,0.79572874 0 0 1 -0.946196,-0.7953 0.94588637,0.79572874 0 0 1 0.946196,-0.795817 z m 4.210595,2.339909 a 0.85782683,0.60956895 0 0 1 0.857829,0.609782 0.85782683,0.60956895 0 0 1 -0.857829,0.609265 0.85782683,0.60956895 0 0 1 -0.857828,-0.609265 0.85782683,0.60956895 0 0 1 0.857828,-0.609782 z m -8.388118,0.535368 2.786393,0.491443 0.403076,3.752742 5.821867,-1.644861 -1.700155,3.644739 -4.344954,0.698149 -4.028178,-2.735751 z" />
  </g>
</svg>
